<!-- Knowledge Tree Growth - Statistics Icon -->
<svg width="24" height="24" viewBox="0 0 24 24" fill="none" stroke="#065F46" stroke-width="2.5" stroke-linecap="round" stroke-linejoin="round">
  <!-- Tree trunk -->
  <path d="M12 22v-8"/>
  
  <!-- Tree branches -->
  <path d="M8 14c0-2 2-4 4-4s4 2 4 4"/>
  <path d="M6 18c0-3 3-6 6-6s6 3 6 6"/>
  
  <!-- Book leaves - showing knowledge growth -->
  <rect x="6" y="12" width="3" height="2" rx="0.5" fill="#FED7AA" stroke="none"/>
  <rect x="15" y="12" width="3" height="2" rx="0.5" fill="#FED7AA" stroke="none"/>
  <rect x="4" y="16" width="3" height="2" rx="0.5" fill="#065F46" stroke="none" opacity="0.7"/>
  <rect x="17" y="16" width="3" height="2" rx="0.5" fill="#065F46" stroke="none" opacity="0.7"/>
  <rect x="10" y="8" width="4" height="2.5" rx="0.5" fill="#065F46" stroke="none"/>
  
  <!-- Growth indicators -->
  <path d="M9 4l1.5 2L12 4" stroke="#FED7AA" stroke-width="1.5"/>
  <path d="M13 6l1.5 2L16 6" stroke="#FED7AA" stroke-width="1.5"/>
  
  <!-- Root system (subtle) -->
  <path d="M10 22c-1-1-2-2-2-3" stroke="#065F46" stroke-width="1" opacity="0.3"/>
  <path d="M14 22c1-1 2-2 2-3" stroke="#065F46" stroke-width="1" opacity="0.3"/>
</svg>