<!-- Reading Rhythm - Based on speed/rhythm icons -->
<svg width="20" height="20" viewBox="0 0 24 24" fill="none" stroke="#065F46" stroke-width="2.5" stroke-linecap="round" stroke-linejoin="round">
  <!-- Speed gauge background -->
  <path d="M12 2C6.5 2 2 6.5 2 12c0 2.8 1.2 5.3 3 7.1" stroke="#065F46" stroke-width="2"/>
  <path d="M22 12c0-5.5-4.5-10-10-10" stroke="#065F46" stroke-width="2"/>
  
  <!-- Speed indicator needle -->
  <path d="M12 6v6l4 2" stroke="#FED7AA" stroke-width="3" stroke-linecap="round"/>
  
  <!-- Rhythm waves -->
  <path d="M4 8c2 0 2 4 4 4s2-4 4-4" stroke="#FED7AA" stroke-width="2" opacity="0.6"/>
  <path d="M16 8c1 0 1 2 2 2s1-2 2-2" stroke="#FED7AA" stroke-width="2" opacity="0.6"/>
  
  <!-- Center dot -->
  <circle cx="12" cy="12" r="1.5" fill="#065F46"/>
  
  <!-- Speed marks -->
  <circle cx="8" cy="8" r="1" fill="#FED7AA"/>
  <circle cx="16" cy="8" r="1" fill="#065F46" opacity="0.7"/>
  <circle cx="18" cy="14" r="1" fill="#FED7AA" opacity="0.8"/>
</svg>