<!-- Reading Journey Bookmark - Sessions Icon -->
<svg width="24" height="24" viewBox="0 0 24 24" fill="none" stroke="#065F46" stroke-width="2.5" stroke-linecap="round" stroke-linejoin="round">
  <!-- Bookmark ribbon -->
  <path d="M9 2v20l3-3 3 3V2z" fill="#FED7AA" fill-opacity="0.2"/>
  <path d="M9 2v20l3-3 3 3V2z"/>
  
  <!-- Journey path line -->
  <path d="M2 6c2 0 4 2 6 2s4-2 6-2" stroke="#FED7AA" stroke-width="2" opacity="0.6"/>
  <path d="M2 10c2 0 4 2 6 2s4-2 6-2" stroke="#FED7AA" stroke-width="2" opacity="0.4"/>
  <path d="M2 14c2 0 4 2 6 2s4-2 6-2" stroke="#FED7AA" stroke-width="2" opacity="0.2"/>
  
  <!-- Progress dots -->
  <circle cx="8" cy="6" r="1" fill="#065F46"/>
  <circle cx="14" cy="10" r="1" fill="#FED7AA"/>
  <circle cx="8" cy="14" r="1" fill="#065F46" opacity="0.5"/>
  
  <!-- Current position marker -->
  <circle cx="12" cy="8" r="2" fill="none" stroke="#065F46" stroke-width="1.5"/>
  <circle cx="12" cy="8" r="1" fill="#FED7AA"/>
</svg>