<!-- Reading Spotlight - Focus Mode Icon -->
<svg width="24" height="24" viewBox="0 0 24 24" fill="none" stroke="#065F46" stroke-width="2.5" stroke-linecap="round" stroke-linejoin="round">
  <!-- Open book -->
  <path d="M2 3h6a4 4 0 0 1 4 4v14a3 3 0 0 0-3-3H2z"/>
  <path d="M22 3h-6a4 4 0 0 0-4 4v14a3 3 0 0 1 3-3h7z"/>
  
  <!-- Spotlight beam -->
  <path d="M12 2l-2 6h4l-2-6z" fill="#FED7AA" fill-opacity="0.3" stroke="none"/>
  <circle cx="12" cy="2" r="1" fill="#FED7AA"/>
  
  <!-- Text lines being highlighted -->
  <path d="M5 10h3" stroke="#FED7AA" stroke-width="2"/>
  <path d="M5 12h4" stroke="#FED7AA" stroke-width="2"/>
  <path d="M15 10h3" stroke="#065F46" stroke-width="1.5" opacity="0.4"/>
  <path d="M15 12h2" stroke="#065F46" stroke-width="1.5" opacity="0.4"/>
  
  <!-- Focus indicator -->
  <circle cx="12" cy="8" r="1.5" fill="none" stroke="#FED7AA" stroke-width="1"/>
</svg>